<svg width="31" height="30" viewBox="0 0 31 30" fill="none" xmlns="http://www.w3.org/2000/svg">
<path d="M16.9477 28.3911C16.8296 28.7382 16.4534 29.5895 15.543 29.5895C14.5074 29.5895 14.1483 28.4691 14.1309 28.4218L14.1003 28.3157C14.1003 28.3157 14.9921 28.3898 15.4834 28.3898C15.9734 28.3898 16.813 28.3414 16.9489 28.3157L16.9477 28.3911Z" fill="#010101"/>
<path d="M19.6653 27.8386L19.8778 27.8654C19.6243 28.5279 19.169 29.2701 18.2768 29.2701C17.4065 29.2701 16.9773 28.7664 16.7976 28.4297L16.6455 28.3369C16.6455 28.3369 18.1448 28.2885 19.6653 27.8386Z" fill="#010101"/>
<path d="M11.4528 27.8386L11.2402 27.8654C11.4925 28.5279 11.9498 29.2701 12.845 29.2701C13.7103 29.2701 14.1767 28.7399 14.3689 28.4297L14.472 28.3369C14.472 28.3369 12.9754 28.2885 11.4528 27.8386Z" fill="#010101"/>
<path d="M16.2696 28.4617C16.1284 28.6639 16.0334 28.6535 15.8666 28.6535C15.7799 28.6535 15.6557 28.7231 15.6569 28.8515C15.6607 28.9525 15.743 29.0347 15.8786 29.0347C16.1867 29.0347 16.4223 28.6076 16.4848 28.4257C16.4848 28.4257 16.6655 28.4183 16.718 28.413C16.718 28.413 16.395 29.3787 15.5541 29.3787C14.7121 29.3787 14.3687 28.4245 14.3687 28.4245C14.3687 28.4245 15.0787 28.4676 15.4833 28.4676C15.8892 28.4676 16.1478 28.4638 16.2696 28.4617Z" fill="url(#paint0_radial_3422_24185)"/>
<path d="M11.5667 28.036C12.1139 28.181 12.505 28.3036 13.4265 28.4155C13.4265 28.4155 13.3972 28.5088 13.1967 28.5013C13.12 28.4962 13.1097 28.4771 13.0831 28.4726C13.024 28.4619 12.9382 28.5219 12.9469 28.6218C12.956 28.6922 13.0149 28.7796 13.2194 28.7796C13.4241 28.7796 13.6623 28.6129 13.7828 28.4572C13.7828 28.4572 13.905 28.4859 14.0322 28.4921C14.0322 28.4921 13.6383 29.0421 12.8645 29.0421C12.0149 29.0421 11.6983 28.2796 11.5667 28.036Z" fill="url(#paint1_radial_3422_24185)"/>
<path d="M15.4731 23.5086C18.4075 23.5086 21.6583 21.7075 23.9407 19.1109C24.1893 18.8303 24.6055 18.2968 25.5967 18.2968C26.5897 18.2968 27.9094 19.2018 27.755 20.8487C27.6397 22.0482 25.9253 24.7549 22.9897 26.4197C20.0549 28.091 17.3511 28.4485 15.4731 28.4485C13.5933 28.4485 10.8922 28.091 7.95565 26.4197C5.02049 24.7549 3.3064 22.0482 3.19211 20.8487C3.03756 19.2018 4.35771 18.2968 5.34849 18.2968C6.34228 18.2968 6.76021 18.8303 7.0079 19.1109C9.28707 21.7075 12.5396 23.5086 15.4731 23.5086Z" fill="#FFE500" stroke="#010101" stroke-width="0.263567" stroke-miterlimit="3.863"/>
<path d="M15.4481 23.9077C12.4955 23.9077 9.13567 22.1655 6.66118 19.3471C6.40924 19.0609 6.08864 18.6926 5.32564 18.6926C4.87989 18.6926 4.37455 18.9312 4.03948 19.3003C3.78719 19.5745 3.5043 20.0579 3.57226 20.7989C3.67041 21.8113 5.27471 24.4312 8.134 26.0584C10.4388 27.3694 12.8997 28.0319 15.4481 28.0319C17.9989 28.0319 20.4598 27.3694 22.7645 26.0584C25.6231 24.4312 27.23 21.8113 27.3244 20.7989C27.3952 20.0579 27.1101 19.5745 26.8614 19.3003C26.5245 18.9312 26.0178 18.6926 25.5743 18.6926C24.8079 18.6926 24.4878 19.0609 24.2383 19.3471C21.7651 22.1655 18.4011 23.9077 15.4481 23.9077Z" fill="#D91F26"/>
<path d="M28.1497 9.21001L28.1601 8.52573C28.3709 8.68674 28.7673 8.68935 28.9994 8.442C29.105 8.32934 29.165 8.15496 29.1564 7.97557C29.1463 7.77305 29.0545 7.56259 28.9032 7.4143C28.0466 6.57713 27.2856 5.74123 27.2856 5.74123C27.207 5.61695 27.0839 5.52702 27.0126 5.49633C26.9079 5.44632 26.535 5.27596 26.251 5.70767C25.9945 6.09871 26.0327 6.65003 26.082 6.8513L26.8851 7.94623C27.1602 8.29491 27.9353 9.03682 28.1497 9.21001Z" fill="#010101"/>
<path d="M10.982 2.11378C11.9932 1.77401 12.9177 1.49314 14.1635 1.38304L14.3525 1.27702C13.657 0.728121 12.9661 0.353638 12.2781 0.353638C11.8461 0.353638 10.967 0.647382 10.771 2.19823L10.982 2.11378Z" fill="#010101"/>
<path d="M19.9662 2.11378C18.9546 1.77401 18.0308 1.49314 16.7862 1.38304L16.5947 1.27702C17.2931 0.728121 17.9824 0.353638 18.6713 0.353638C19.1037 0.353638 19.979 0.647382 20.1789 2.19823L19.9662 2.11378Z" fill="#010101"/>
<path d="M14.3308 1.33174C14.8395 0.353709 15.3046 0 15.5647 0C15.8864 0 16.2648 0.511159 16.5622 1.17268L16.6247 1.32264L16.3634 1.30227C16.1919 1.26998 15.7036 1.26381 15.5172 1.26381C15.3258 1.26381 14.9132 1.26381 14.6647 1.28701L14.3308 1.33174Z" fill="#010101"/>
<path d="M10.3196 23.3716L9.58317 24.703C9.36072 25.1031 9.1316 25.357 8.75595 25.1416C8.386 24.9324 8.47174 24.6292 8.69869 24.2158L9.43734 22.8828L8.84169 22.5522L8.06125 23.9611C7.63168 24.7365 8.17221 25.2174 8.59557 25.4507C9.04752 25.7009 9.7053 25.8868 10.1311 25.1172L10.917 23.702L10.3196 23.3716ZM19.7906 26.1145L19.5423 25.3506L20.2813 25.112L20.1789 24.7944L19.4393 25.0342L19.2289 24.3814L19.9853 24.1332L19.8833 23.8188L18.4986 24.2691L19.2682 26.6352L20.7946 26.1401L20.6938 25.8246L19.7906 26.1145ZM21.3724 23.0525L20.5295 23.5384L21.7776 25.7027L22.6172 25.2173C23.485 24.7169 23.5674 23.9588 23.2257 23.3507C22.8143 22.6292 22.1354 22.6125 21.3724 23.0525ZM22.6463 23.7111C22.9623 24.265 22.8981 24.6687 22.4114 24.9476L22.1793 25.0826L21.263 23.4994L21.5125 23.3549C22.097 23.0188 22.4288 23.318 22.6463 23.7111ZM15.9029 24.7253L15.9481 25.0496L16.6449 24.951L16.946 27.0901L17.5938 27.0003L17.2935 24.8623L17.98 24.767L17.9327 24.4383L15.9029 24.7253ZM15.3132 24.7455L14.6607 24.7098L14.5302 27.1953L15.1831 27.2299L15.3132 24.7455ZM13.3323 24.4417L12.8779 26.14L12.0275 24.0916L11.4985 23.9496L10.8539 26.3543L11.4301 26.507L11.8883 24.7946L12.7515 26.8603L13.2689 26.9999L13.9109 24.5945L13.3323 24.4417Z" fill="#FFE500"/>
<path d="M9.89917 8.74971V20.4068L15.473 23.9883L21.0464 20.4068L21.0547 8.76746C20.8761 8.61017 20.5053 8.26509 20.2151 8.08447H10.7052C10.4645 8.25354 9.98236 8.66022 9.89917 8.74971Z" fill="#FFE500"/>
<mask id="mask0_3422_24185" style="mask-type:luminance" maskUnits="userSpaceOnUse" x="9" y="8" width="13" height="16">
<path d="M9.89917 8.74971V20.4068L15.473 23.9883L21.0464 20.4068L21.0547 8.76746C20.8761 8.61017 20.5053 8.26509 20.2151 8.08447H10.7052C10.4645 8.25354 9.98236 8.66022 9.89917 8.74971Z" fill="white"/>
</mask>
<g mask="url(#mask0_3422_24185)">
<path d="M9.89917 4.01477V8.74973V20.4069L15.473 23.9883L21.0464 20.4069L21.0547 4.03256" stroke="#B44325" stroke-width="1.2563" stroke-miterlimit="3.863"/>
</g>
<path d="M17.7007 17.1135V16.6802C17.7007 16.6802 17.5855 16.5022 17.3001 16.5022C17.0154 16.5022 16.8453 16.588 16.8453 16.6596C16.8453 16.7768 17.0999 17.1135 17.7007 17.1135ZM15.4531 13.2782L15.8839 12.5261L16.2215 13.2782H16.7805C16.4443 13.5938 16.3068 14.0715 16.3068 14.39V14.7371C16.3068 14.8846 16.2326 15.1287 16.2326 15.1287C16.2326 15.1287 16.718 15.4984 16.7927 15.5627C16.8237 15.5871 16.8577 15.6021 16.8353 15.6662C16.7968 15.7743 16.4672 15.9231 16.4336 15.9512C16.3589 16.0175 16.3394 16.0572 16.3589 16.1227C16.3826 16.1857 16.4443 16.1972 16.5706 16.1525C16.6983 16.1115 16.9625 15.9727 17.1841 15.8778C17.4049 15.7819 17.7007 15.8062 17.7007 15.8062V15.3815H16.8656V14.0326L16.718 13.7948L17.0863 13.1386L17.4567 13.7989L17.3109 14.0326V14.7371H17.7362V14.0326L17.5897 13.7989L17.9592 13.1436L18.3269 13.7989L18.1815 14.0326V14.7371H18.6098V14.0326L18.4582 13.7989L18.829 13.1436L19.1985 13.7989L19.051 14.0326L19.0581 15.3796H18.2163V16.0026C18.4074 16.182 18.5875 16.588 18.5875 16.8269C18.5875 17.0716 18.4282 17.1752 18.4282 17.1752C18.4815 17.3675 18.4712 17.4474 18.4484 17.6213C18.4282 17.7982 18.2073 18.0741 18.2073 18.0741V21.294C18.2073 21.5126 17.7007 21.4911 17.7007 21.3044V18.1466C17.414 17.8331 16.6335 17.5866 16.6335 17.5866C16.3474 17.8729 16.1714 18.37 16.1714 18.37C16.2956 18.457 16.489 18.37 16.5619 18.2854C16.6335 18.2009 16.7805 18.1789 16.8656 18.2323C16.9489 18.2854 16.9696 18.3057 16.941 18.4299C16.9084 18.5609 16.8561 18.7701 16.8561 18.9162C16.8561 19.0662 17.0245 19.0325 17.1506 19.0438C17.4049 19.0662 17.4467 19.3504 17.4257 19.5091C17.4049 19.6684 17.3303 20.0069 17.3303 20.2174C17.3303 20.4258 17.3415 20.6362 17.3622 20.7554C17.3842 20.8705 17.4257 20.9977 17.414 21.1464C17.4011 21.3465 17.2781 21.3785 17.1506 21.2501C17.0245 21.1236 15.2613 19.244 15.2613 19.244C15.144 19.6263 15.632 20.2783 15.7895 20.4795C15.948 20.6809 15.9378 20.8288 15.7988 20.9666C15.663 21.1029 15.3984 21.1759 15.3466 21.3044C15.2927 21.4285 15.473 21.8114 15.8436 22.2861C16.2131 22.7598 15.4194 23.078 14.9461 23.1729C14.4692 23.2665 14.4692 22.9393 14.5024 22.7598C14.5339 22.5821 14.5339 22.4741 14.5223 22.3178C14.512 22.1589 14.3661 21.9384 14.1635 21.6746C13.9635 21.4095 13.9635 21.1684 14.0467 20.5541C14.1309 19.9414 14.1109 19.5504 14.1109 19.5504C14.1109 19.5504 13.8998 19.5591 13.5932 19.5504C13.2883 19.5388 13.0353 19.362 13.0136 18.6222C12.9925 17.8844 12.9751 16.1227 12.925 15.938C12.8761 15.7553 12.6785 15.7217 12.5953 15.6972C12.5088 15.6759 12.5046 15.5511 12.5882 15.5063C12.8087 15.3991 13.0729 15.1287 12.9751 14.9603C12.8761 14.7918 12.488 14.8266 12.2283 14.9539C11.9677 15.0797 11.6931 15.3564 11.6223 15.4318C11.5539 15.5063 11.4947 15.5063 11.5022 15.4261C11.5109 15.3399 11.4541 14.9367 11.4206 14.7972C11.3832 14.6563 11.2573 14.39 11.2147 14.3196C11.1728 14.2487 11.2147 14.2214 11.2859 14.2487C11.3543 14.2769 11.5109 14.342 11.658 14.3809C11.8063 14.4256 11.9474 14.3527 12.0149 14.2143C12.0853 14.0715 12.2229 13.7703 12.2933 13.6358C12.3624 13.5028 12.4744 13.5325 12.5663 13.5528C12.6575 13.5744 12.7419 13.6307 12.826 13.6642C12.9098 13.6991 12.9797 13.6924 13.0095 13.6497C13.0381 13.6092 13.0729 13.5938 13.1235 13.4886C13.1727 13.3834 13.2341 13.4336 13.242 13.4754C13.4938 14.9898 14.1498 15.0594 14.1498 15.0594C14.0513 15.3116 13.8201 15.7138 13.7655 15.8153C13.7063 15.9102 13.6842 16.0453 13.6698 16.15C13.6587 16.2544 13.7063 17.2548 13.7763 17.6213C13.8475 17.9886 14.0716 17.8456 14.1445 17.7332C14.212 17.6213 14.432 17.1558 14.432 17.1558C14.432 17.1558 14.4863 17.0291 14.4863 16.9238C14.4863 16.8178 14.304 16.588 14.2622 16.5162C14.2186 16.4433 14.065 16.3038 14.065 15.9512C14.065 15.5999 14.3814 15.3564 14.4953 15.2641C14.608 15.1717 14.608 15.0436 14.5927 14.9666C14.5434 14.6948 14.2547 14.1233 14.1159 13.9041C13.9738 13.6858 13.6996 13.2711 13.6996 13.2711H14.2695L14.6367 12.509L15.036 13.2744L15.4531 13.2782ZM15.3607 15.5871C15.5468 15.2798 15.6246 14.9603 15.6246 14.9603H15.0869C15.0869 14.9603 15.1731 15.2871 15.3607 15.5871ZM14.8007 14.0376C14.8222 14.1949 14.9394 14.2549 15.0285 14.209C15.1171 14.16 15.1018 14.0326 15.036 13.9305C14.9729 13.8309 14.8421 13.7194 14.8019 13.7359C14.7609 13.7529 14.7866 13.9447 14.8007 14.0376ZM15.8665 13.7359C15.828 13.7194 15.69 13.8309 15.6246 13.9305C15.5616 14.0326 15.5454 14.16 15.6348 14.209C15.7224 14.2549 15.835 14.1937 15.8631 14.0376C15.8786 13.9447 15.9087 13.7529 15.8665 13.7359Z" fill="url(#paint2_linear_3422_24185)"/>
<path d="M10.3364 11.6559V12.3576H20.6199V11.6559H19.8616V11.7691H11.0948V11.6559H10.3364Z" fill="#D91F26"/>
<path d="M10.3372 8.50232H20.6187V11.2984H10.3372V8.50232Z" fill="#D91F26"/>
<path d="M12.1039 10.4866L12.8913 10.68L13.3163 9.49578V9.19589L12.1039 10.4866ZM18.5937 11.1847V10.82H17.8503V10.5134H18.4578V9.16146H17.8981L17.7068 8.78943L17.5198 9.16146H16.9588V10.5134H17.5684V10.82H16.1066V10.5134H16.7147V9.16146H16.1542L15.9649 8.78943L15.7735 9.16146H15.2147V10.5134H15.8257V10.82H14.3337V10.5134H14.9431V9.16146H14.3817L14.1941 8.78943L14.0014 9.16146H13.4423V10.5134H14.0537V10.82L12.873 10.8237L11.6987 10.5494L11.934 11.1847H18.5937Z" fill="#FFE500"/>
<path d="M11.0406 2.00348C12.0331 1.67134 12.7832 1.4124 14.0056 1.30384C13.4423 0.91286 12.9423 0.581909 12.3674 0.581909C12.065 0.581909 11.8066 0.69743 11.7468 0.908768C11.6913 1.10094 11.8429 1.18457 11.8968 1.17179C11.953 1.15725 11.9933 1.14072 11.9796 1.08853C11.9651 1.03342 12.0078 0.893376 12.2 0.893376C12.3956 0.893376 12.4693 1.07446 12.4693 1.19861C12.4693 1.32294 12.272 1.53054 11.9096 1.53054C11.5542 1.53054 11.3719 1.29351 11.3857 1.07446C11.2142 1.3254 11.1143 1.57939 11.0406 2.00348Z" fill="url(#paint3_radial_3422_24185)"/>
<path d="M4.12475 7.94604L4.93076 6.8511C4.97722 6.64984 5.01411 6.09892 4.75644 5.70785C4.47472 5.27592 4.10354 5.44649 3.99459 5.49667C3.92588 5.52733 3.80079 5.61682 3.72373 5.74137C3.72373 5.74137 2.94873 6.59478 2.09576 7.43447C1.9753 7.55411 1.84275 7.77285 1.83155 7.97537C1.82122 8.15514 1.89365 8.33579 1.998 8.44841C2.23127 8.69699 2.63887 8.68707 2.84722 8.52547L2.86173 9.20981C3.07628 9.037 3.85008 8.29477 4.12475 7.94604Z" fill="#010101"/>
<path d="M15.4731 6.35285C20.0627 6.35285 22.6741 10.6608 23.244 11.4171C24.2565 12.7683 25.4957 13.8653 26.9319 13.5028C29.0416 12.963 28.9317 9.83816 28.9317 9.83816C28.4227 9.47158 27.5553 9.01006 25.9738 6.76829C24.425 4.5708 20.9202 1.31543 15.4731 1.31543C10.0247 1.31543 6.52086 4.5708 4.97577 6.76829C3.3925 9.01006 2.52228 9.47158 2.01817 9.83816C2.01817 9.83816 1.90422 12.963 4.01556 13.5028C5.45085 13.8653 6.68939 12.7683 7.70346 11.4171C8.2713 10.6608 10.8842 6.35285 15.4731 6.35285Z" fill="#FFE500" stroke="#010101" stroke-width="0.263567" stroke-miterlimit="3.863"/>
<path d="M15.473 5.94373C19.8978 5.94373 22.5293 9.6971 23.4811 11.0514C24.7406 12.7325 25.8067 13.3671 26.8311 13.1066C28.3115 12.7296 28.4955 10.6921 28.5153 10.0753V10.0508L28.4987 10.038C27.9769 9.67635 27.1037 9.07697 25.6406 7.00287C24.7679 5.7644 21.4543 1.72034 15.473 1.72034C9.49363 1.72034 6.17732 5.7644 5.30493 7.00287C3.85393 9.06368 2.94134 9.69209 2.45266 10.0276L2.43188 10.0446L2.43437 10.0662C2.45423 10.6842 2.6386 12.7325 4.11528 13.1066C5.14094 13.3671 6.20927 12.7325 7.4654 11.0514C8.41617 9.6971 11.0503 5.94373 15.473 5.94373Z" fill="#D91F26"/>
<path d="M13.0695 2.80836C12.2576 2.98026 11.7228 3.5788 11.898 4.39025C11.9999 4.82841 12.391 5.63498 13.6279 5.37193C13.9713 5.30642 14.1568 5.16975 14.3366 4.99785L14.1112 4.73908C14.0264 4.83348 13.8995 4.97091 13.6151 5.03024C13.0165 5.15659 12.6607 4.67225 12.572 4.25436C12.4402 3.63505 12.8011 3.20847 13.2086 3.12014C13.4999 3.05605 13.6763 3.13509 13.7883 3.17853H13.792L13.8676 2.86137C13.6714 2.78258 13.4357 2.73045 13.0695 2.80836ZM19.8594 6.37831C20.3239 6.65783 20.8304 6.61027 21.0674 6.21791C21.2397 5.94377 21.2414 5.71591 21.0342 5.30793C20.9808 5.19235 20.9109 5.10947 20.864 5.00424C20.7725 4.83367 20.688 4.69403 20.7667 4.56186C20.8537 4.41861 21.055 4.40696 21.2372 4.51839C21.4282 4.63391 21.5074 4.82488 21.5475 4.95539L21.847 4.82621C21.7549 4.58015 21.6186 4.35924 21.3072 4.17501C20.7749 3.85441 20.342 3.9389 20.162 4.23922C19.9792 4.54121 20.031 4.79265 20.1686 5.05029C20.1686 5.05029 20.2538 5.19654 20.3032 5.29632C20.4237 5.49765 20.5641 5.75148 20.4655 5.91025C20.3462 6.11022 20.1408 6.15382 19.9406 6.02948C19.6843 5.86797 19.6243 5.67993 19.5707 5.49642L19.2415 5.63728C19.314 5.88985 19.4842 6.15174 19.8594 6.37831ZM16.3146 2.67764L16.296 3.69167L15.3208 3.67763L15.3352 2.65985L14.6817 2.64783L14.6381 5.1361L15.293 5.1502L15.3138 4.00944L16.2904 4.02719L16.2719 5.16591L16.9259 5.17585L16.9687 2.68755L16.3146 2.67764ZM25.679 10.579C25.6836 10.5852 26.0625 10.7724 26.4838 10.3942C26.836 10.0778 26.7179 9.64401 26.3499 9.23679L25.6719 8.48335L23.8233 10.1493L24.2602 10.6341L24.9963 9.9737L25.2089 10.2136L24.7428 11.2649L25.3008 11.7106L25.679 10.579ZM26.0092 9.35329C26.1822 9.54549 26.1852 9.77373 25.9838 9.95101C25.7879 10.1316 25.5378 10.0902 25.3476 9.88141L25.237 9.75752L25.8628 9.19206L26.0092 9.35329ZM23.124 8.71757L23.7433 8.20349L24.2399 8.7946L24.4967 8.58043L23.9972 7.98686L24.5213 7.54574L25.0327 8.15504L25.2867 7.94339L24.3522 6.82957L22.4472 8.42924L23.4761 9.65748L23.7329 9.44413L23.124 8.71757ZM22.4099 4.97862L22.1878 5.22209L22.7098 5.69391L21.2633 7.29858L21.7512 7.73731L23.1957 6.13219L23.711 6.59607L23.9321 6.35257L22.4099 4.97862ZM18.1503 5.13635L18.4138 4.37747L19.1466 4.63013L19.2555 4.31445L18.5215 4.06219L18.7448 3.41235L19.5 3.67112L19.6059 3.35717L18.2303 2.88375L17.4217 5.24026L18.9379 5.75925L19.0455 5.4453L18.1503 5.13635ZM10.2721 3.91718L11.2067 5.40677L9.12602 4.63013L8.66302 4.92086L9.98223 7.03468L10.4847 6.71814L9.544 5.21328L11.6462 5.9937L12.1002 5.70914L10.7784 3.59658L10.2721 3.91718ZM7.36185 6.16805L6.9364 6.62456L8.12901 8.99599L8.42017 8.68449L8.09627 8.05363L8.67205 7.43431L9.32476 7.71106L9.80441 7.19745L7.36185 6.16805ZM8.3676 7.29726L7.93552 7.76117L7.49141 6.90782L8.3676 7.29726ZM5.95639 7.67291L5.49323 8.22426L6.3586 10.0136L4.50277 9.40604L4.10352 9.87905L6.01015 11.48L6.29981 11.1362L4.95233 10.0021L6.75821 10.5903L6.94839 10.3649L6.08715 8.63932L7.44048 9.77385L7.86299 9.27387L5.95639 7.67291Z" fill="#FFE500"/>
<path d="M3.04327 8.94082L3.04126 8.39202C3.97786 7.53209 4.41943 6.66798 4.41943 6.66798C4.41943 6.66798 4.0751 6.53833 3.92102 6.34244C3.84478 6.2335 3.81544 6.0848 3.82828 5.98496C3.85809 5.79773 4.00393 5.70283 4.0536 5.68133C4.16134 5.6349 4.36138 5.52967 4.5843 5.83623C4.82158 6.16794 4.75906 6.79764 4.7263 6.94265C4.7263 6.94265 4.28977 7.70273 3.04327 8.94082Z" fill="url(#paint4_radial_3422_24185)"/>
<path d="M4.07963 6.76821C3.95328 6.98859 3.63476 7.52046 2.82913 8.27559C2.69529 8.40106 2.36141 8.50755 2.17211 8.29502C2.10125 8.21264 2.05442 8.09699 2.0615 7.96277C2.07069 7.80753 2.16389 7.62688 2.25747 7.54727C2.4198 7.41022 3.11202 6.71146 3.60407 6.16174C3.61773 6.26197 3.70391 6.42971 3.70391 6.42971C3.77187 6.52335 3.85475 6.65792 4.07963 6.76821Z" fill="url(#paint5_linear_3422_24185)"/>
<path d="M15.4481 23.9077C12.4955 23.9077 9.13567 22.1655 6.66118 19.3471C6.40924 19.0609 6.08864 18.6926 5.32564 18.6926C4.87989 18.6926 4.37455 18.9312 4.03948 19.3003C3.78719 19.5745 3.5043 20.0579 3.57226 20.7989C3.67041 21.8113 5.27471 24.4312 8.134 26.0584C10.4388 27.3694 12.8997 28.0319 15.4481 28.0319" fill="url(#paint6_linear_3422_24185)"/>
<path d="M15.4482 23.9077C18.4009 23.9077 21.7606 22.1655 24.2352 19.3471C24.4871 19.0609 24.8077 18.6926 25.5707 18.6926C26.0164 18.6926 26.5218 18.9312 26.8568 19.3003C27.1091 19.5745 27.3921 20.0579 27.3241 20.7989C27.2259 21.8113 25.6217 24.4312 22.7623 26.0584C20.4575 27.3694 17.9965 28.0319 15.4482 28.0319" fill="url(#paint7_linear_3422_24185)"/>
<path d="M23.4812 11.0513C24.7407 12.7324 25.8068 13.367 26.8313 13.1065C28.3116 12.7296 28.4956 10.692 28.5155 10.0752V10.0507L28.4989 10.038C27.977 9.67629 27.1039 9.0769 25.6408 7.00281" fill="url(#paint8_linear_3422_24185)"/>
<path d="M7.46909 11.0513C6.20972 12.7324 5.14346 13.367 4.1191 13.1065C2.63853 12.7296 2.45468 10.692 2.43481 10.0752V10.0507L2.45147 10.038C2.97329 9.67629 3.84654 9.0769 5.30953 7.00281" fill="url(#paint9_linear_3422_24185)"/>
<path d="M19.9099 2.00348C18.9175 1.67134 18.1671 1.4124 16.9448 1.30384C17.5082 0.91286 18.0082 0.581909 18.5831 0.581909C18.8855 0.581909 19.144 0.69743 19.2035 0.908768C19.2591 1.10094 19.1076 1.18457 19.0537 1.17179C18.9972 1.15725 18.9573 1.14072 18.9707 1.08853C18.9853 1.03342 18.9426 0.893376 18.7505 0.893376C18.555 0.893376 18.4812 1.07446 18.4812 1.19861C18.4812 1.32294 18.6784 1.53054 19.0408 1.53054C19.3962 1.53054 19.5785 1.29351 19.5649 1.07446C19.7363 1.3254 19.8361 1.57939 19.9099 2.00348Z" fill="url(#paint10_radial_3422_24185)"/>
<path d="M15.5195 0.700868C15.4884 0.89055 15.2702 1.07233 15.0493 1.07233C14.8281 1.07233 14.7618 1.03676 14.7618 1.03676C14.7284 1.08898 14.6989 1.12908 14.6641 1.18546C14.8646 1.17756 15.3298 1.16478 15.5163 1.16478C15.7022 1.16478 16.218 1.19166 16.3289 1.1995C16.1496 0.779121 15.8037 0.197107 15.5646 0.197107C15.5564 0.197107 15.546 0.196289 15.5332 0.196289C15.4773 0.196289 15.2836 0.364252 15.1797 0.511753C15.0435 0.705495 15.5195 0.700868 15.5195 0.700868Z" fill="url(#paint11_radial_3422_24185)"/>
<path d="M27.907 8.94082L27.9091 8.39202C26.9725 7.53209 26.531 6.66798 26.531 6.66798C26.531 6.66798 26.8752 6.53833 27.0292 6.34244C27.1055 6.2335 27.1349 6.0848 27.122 5.98496C27.0922 5.79773 26.9463 5.70283 26.8967 5.68133C26.789 5.6349 26.589 5.52967 26.366 5.83623C26.1287 6.16794 26.1913 6.79764 26.224 6.94265C26.224 6.94265 26.6606 7.70273 27.907 8.94082Z" fill="url(#paint12_radial_3422_24185)"/>
<path d="M26.8706 6.76821C26.9969 6.98859 27.3154 7.52046 28.121 8.27559C28.2549 8.40106 28.5887 8.50755 28.7781 8.29502C28.8489 8.21264 28.8957 8.09699 28.8886 7.96277C28.8796 7.80753 28.7863 7.62688 28.6927 7.54727C28.5303 7.41022 27.8382 6.71146 27.346 6.16174C27.3323 6.26197 27.2462 6.42971 27.2462 6.42971C27.1782 6.52335 27.0954 6.65792 26.8706 6.76821Z" fill="url(#paint13_linear_3422_24185)"/>
<path d="M9.89917 8.74971V20.4068L15.473 23.9883L21.0464 20.4068L21.0547 8.76746C20.8761 8.61017 20.5053 8.26509 20.2151 8.08447H10.7052C10.4645 8.25354 9.98236 8.66022 9.89917 8.74971Z" stroke="#010101" stroke-width="0.263567" stroke-miterlimit="3.863"/>
<path d="M19.5596 28.036C19.0124 28.181 18.6214 28.3036 17.6996 28.4155C17.6996 28.4155 17.7291 28.5088 17.9294 28.5013C18.0062 28.4962 18.0165 28.4771 18.0431 28.4726C18.1023 28.4619 18.1881 28.5219 18.1792 28.6218C18.1703 28.6922 18.1114 28.7796 17.9068 28.7796C17.7022 28.7796 17.464 28.6129 17.3434 28.4572C17.3434 28.4572 17.2213 28.4859 17.094 28.4921C17.094 28.4921 17.4881 29.0421 18.2617 29.0421C19.1114 29.0421 19.4277 28.2796 19.5596 28.036Z" fill="url(#paint14_radial_3422_24185)"/>
<path d="M1 16.0704C1 14.6639 2.14117 13.5203 3.54915 13.5203C4.9575 13.5203 6.09779 14.6639 6.09779 16.0704C6.09779 17.4791 4.9575 18.6203 3.54915 18.6203C2.14117 18.6203 1 17.4791 1 16.0704Z" fill="#FFE500" stroke="#010101" stroke-width="0.263567" stroke-miterlimit="3.863"/>
<path d="M1.5835 15.9754C1.5835 14.9091 2.46341 14.0421 3.54909 14.0421C4.63508 14.0421 5.51431 14.9091 5.51431 15.9754C5.51431 17.0436 4.63508 17.9088 3.54909 17.9088C2.46341 17.9088 1.5835 17.0436 1.5835 15.9754Z" fill="url(#paint15_radial_3422_24185)"/>
<path d="M4.0903 17.8227C3.97853 17.8583 3.93005 17.7801 3.87906 17.7236C3.68063 17.4954 3.6297 16.8877 3.6297 16.8075C3.6297 16.7268 3.65951 16.6379 3.71632 16.636C4.19471 16.6268 4.53646 16.4881 4.85001 16.2275C5.16321 15.9716 5.29906 15.6779 5.32676 15.6257C5.35411 15.5676 5.41921 15.578 5.43123 15.6584C5.44445 15.7254 5.46976 15.846 5.46976 15.9766C5.46976 16.8522 4.87944 17.5675 4.0903 17.8227ZM3.58535 17.9018C3.57169 17.9018 3.55642 17.9036 3.54361 17.9036C3.19103 17.9036 2.80295 17.7688 2.57301 17.6381C2.33485 17.5083 2.24533 16.897 2.24533 16.588C2.24533 15.5818 2.65797 14.9827 2.72504 14.8652C2.79055 14.7458 2.93802 14.7334 3.04608 14.7624C3.15789 14.7948 3.19774 14.8142 3.32657 14.8523C3.39359 14.8742 3.52992 14.9019 3.63225 14.9202C3.73455 14.9447 3.84463 14.9663 3.7784 15.1572C3.71296 15.3486 3.49019 15.8083 3.46772 16.3534C3.44622 16.8469 3.51169 17.3368 3.62312 17.6381C3.6964 17.8326 3.69627 17.9055 3.58535 17.9018ZM2.12902 15.6049C2.03488 15.5552 1.92194 15.3125 1.88379 15.2416C1.8581 15.1906 1.8581 15.045 1.89499 14.9827C2.05228 14.7073 2.27561 14.4522 2.56306 14.3192C2.59825 14.3039 2.64761 14.3009 2.64761 14.3855C2.64761 14.4305 2.67204 14.501 2.67292 14.5458C2.67292 14.5909 2.6919 14.6833 2.63477 14.7562C2.57465 14.8296 2.31738 15.2856 2.25166 15.5411C2.24083 15.5984 2.22342 15.6584 2.12902 15.6049ZM2.07602 17.2196C1.80918 16.9562 1.61906 16.479 1.61906 15.9766C1.61906 15.7815 1.64805 15.5947 1.69986 15.4173C1.69986 15.4173 1.74746 15.3378 1.78888 15.4053C1.82083 15.455 1.86468 15.5051 1.90031 15.5714C1.9401 15.6377 2.14643 15.7946 2.12902 15.9227C2.05691 16.3928 2.12156 17.0174 2.14382 17.1226C2.16384 17.2266 2.13522 17.2709 2.07602 17.2196ZM2.91803 14.1552C3.11568 14.0897 3.32657 14.0528 3.54361 14.0528C3.87368 14.0528 4.19434 14.1129 4.46192 14.2837C4.53064 14.3283 4.55012 14.3805 4.55012 14.458C4.55012 14.7102 4.15581 14.7948 3.8948 14.7948C3.63225 14.7948 3.3091 14.6908 3.08052 14.6182C2.85268 14.547 2.80295 14.4153 2.80295 14.3552C2.80295 14.2976 2.84724 14.1784 2.91803 14.1552ZM4.69841 14.4356C4.7336 14.4642 4.82687 14.5395 4.82687 14.5395C5.01073 14.7073 5.1769 14.8987 5.27338 15.1281C5.39396 15.4173 5.01986 15.8551 4.91013 15.9562C4.41471 16.4214 4.1045 16.4127 3.92886 16.438C3.75322 16.4636 3.63927 16.3534 3.64374 16.2213C3.65494 15.8344 3.93043 15.1675 4.0096 15.0419C4.06015 14.9612 4.14794 14.9111 4.14794 14.9111C4.33183 14.8602 4.51037 14.7836 4.60275 14.6784C4.69297 14.5715 4.69841 14.4356 4.69841 14.4356ZM3.56265 13.9272C2.37839 13.9272 1.41943 14.8866 1.41943 16.0702C1.41943 17.2543 2.37839 18.2134 3.56265 18.2134C4.74613 18.2134 5.70704 17.2543 5.70704 16.0702C5.70704 14.8866 4.74613 13.9272 3.56265 13.9272Z" fill="#D91F26"/>
<path d="M24.9019 16.0653C24.9019 14.6589 26.0432 13.5194 27.4511 13.5194C28.8599 13.5194 30.0002 14.6589 30.0002 16.0653C30.0002 17.4741 28.8599 18.6156 27.4511 18.6156C26.0432 18.6156 24.9019 17.4741 24.9019 16.0653Z" fill="#FFE500" stroke="#010101" stroke-width="0.263567" stroke-miterlimit="3.863"/>
<path d="M28.9437 17.2109C28.8878 17.2661 28.8563 17.2179 28.88 17.1149C28.8994 17.0126 28.9645 16.3858 28.892 15.9156C28.8741 15.7881 29.0818 15.6316 29.1197 15.5642C29.1578 15.4984 29.2014 15.447 29.232 15.3991C29.2746 15.3295 29.3199 15.4073 29.3199 15.4073C29.3746 15.5867 29.4012 15.7743 29.4012 15.9686C29.4012 16.4728 29.2083 16.9483 28.9437 17.2109ZM28.771 15.5346C28.7047 15.2797 28.4459 14.8217 28.3874 14.7487C28.3287 14.6783 28.3472 14.5847 28.3481 14.5397C28.3481 14.4948 28.3736 14.4232 28.3736 14.3768C28.3736 14.2959 28.4226 14.2977 28.4576 14.3129C28.7466 14.446 28.9687 14.6973 29.1276 14.9753C29.1629 15.0387 29.1638 15.1837 29.1376 15.2329C29.1003 15.3043 28.9881 15.547 28.892 15.5984C28.7959 15.6509 28.7817 15.5897 28.771 15.5346ZM28.4491 17.6309C28.2189 17.7597 27.8307 17.8957 27.4764 17.8957H27.4356C27.3266 17.8985 27.3241 17.8226 27.3986 17.6289C27.5068 17.3303 27.5743 16.8381 27.5519 16.346C27.5296 15.7983 27.3097 15.3437 27.2413 15.1509C27.175 14.96 27.2855 14.9368 27.3891 14.9153C27.4919 14.895 27.6277 14.8651 27.6952 14.8436C27.822 14.8052 27.8629 14.7857 27.9749 14.7537C28.0839 14.7255 28.2304 14.7397 28.2971 14.8561C28.3625 14.9753 28.7759 15.5781 28.7759 16.5816C28.7759 16.8891 28.6856 17.4996 28.4491 17.6309ZM26.9318 17.8148C26.1407 17.5584 25.5517 16.8434 25.5517 15.9686C25.5517 15.8398 25.5768 15.7206 25.5873 15.6509C25.6026 15.5706 25.663 15.5574 25.6934 15.6166C25.7211 15.6704 25.8586 15.9637 26.17 16.2205C26.4856 16.479 26.8241 16.6202 27.3054 16.6302C27.3639 16.633 27.3912 16.7188 27.3912 16.8013C27.3912 16.8828 27.3419 17.4893 27.1443 17.7159C27.0918 17.7739 27.0411 17.8534 26.9318 17.8148ZM25.7496 15.1216C25.8437 14.8921 26.0106 14.6973 26.1944 14.5334C26.1944 14.5334 26.2857 14.4563 26.3209 14.4294C26.3209 14.4294 26.3283 14.5665 26.4198 14.6692C26.5111 14.7728 26.6878 14.8539 26.8717 14.9025C26.8717 14.9025 26.9584 14.955 27.0101 15.0358C27.0918 15.1575 27.3652 15.8236 27.3771 16.2135C27.3804 16.346 27.2678 16.4562 27.0918 16.4309C26.9152 16.4073 26.6059 16.4128 26.1108 15.9499C26.0015 15.8484 25.6274 15.4115 25.7496 15.1216ZM26.5583 14.2765C26.8296 14.105 27.1459 14.045 27.4764 14.045C27.6952 14.045 27.9033 14.0823 28.1025 14.1477C28.1757 14.1705 28.2189 14.2885 28.2189 14.3478C28.2189 14.4062 28.1703 14.5397 27.9409 14.6112C27.7123 14.6816 27.3904 14.7869 27.1282 14.7869C26.8642 14.7869 26.4712 14.7011 26.4712 14.4501C26.4712 14.3742 26.4903 14.3191 26.5583 14.2765ZM27.4562 13.9219C26.2733 13.9219 25.314 14.8818 25.314 16.0623C25.314 17.2495 26.2733 18.2054 27.4562 18.2054C28.6414 18.2054 29.6007 17.2495 29.6007 16.0623C29.6007 14.8818 28.6414 13.9219 27.4562 13.9219Z" fill="#D91F26"/>
<path d="M25.5144 15.9661C25.5144 14.8997 26.3943 14.0327 27.48 14.0327C28.5659 14.0327 29.4452 14.8997 29.4452 15.9661C29.4452 17.0341 28.5659 17.8994 27.48 17.8994C26.3943 17.8994 25.5144 17.0341 25.5144 15.9661Z" fill="url(#paint16_radial_3422_24185)"/>
<defs>
<radialGradient id="paint0_radial_3422_24185" cx="0" cy="0" r="1" gradientUnits="userSpaceOnUse" gradientTransform="translate(15.5434 28.8832) scale(0.998781 0.742478)">
<stop stop-color="#FFE500"/>
<stop offset="0.5" stop-color="#FFE500"/>
<stop offset="1" stop-color="#DF5426"/>
</radialGradient>
<radialGradient id="paint1_radial_3422_24185" cx="0" cy="0" r="1" gradientUnits="userSpaceOnUse" gradientTransform="translate(12.7995 28.5391) scale(1.05625 0.94974)">
<stop stop-color="#FFE500"/>
<stop offset="0.5" stop-color="#FFE500"/>
<stop offset="1" stop-color="#DF5426"/>
</radialGradient>
<linearGradient id="paint2_linear_3422_24185" x1="15.1983" y1="12.4734" x2="15.1983" y2="18.0183" gradientUnits="userSpaceOnUse">
<stop stop-color="#8E191C"/>
<stop offset="0.249601" stop-color="#B31F24"/>
<stop offset="1" stop-color="#D91F26"/>
</linearGradient>
<radialGradient id="paint3_radial_3422_24185" cx="0" cy="0" r="1" gradientUnits="userSpaceOnUse" gradientTransform="translate(12.3007 1.35493) scale(1.20759 1.14976)">
<stop stop-color="#FFE500"/>
<stop offset="0.5" stop-color="#FFE500"/>
<stop offset="1" stop-color="#DF5426"/>
</radialGradient>
<radialGradient id="paint4_radial_3422_24185" cx="0" cy="0" r="1" gradientUnits="userSpaceOnUse" gradientTransform="translate(3.52234 7.48473) rotate(-60.2742) scale(1.88429 1.65753)">
<stop stop-color="#FFE500"/>
<stop offset="0.5" stop-color="#FFE500"/>
<stop offset="1" stop-color="#DF5426"/>
</radialGradient>
<linearGradient id="paint5_linear_3422_24185" x1="2.81516" y1="7.14822" x2="3.27321" y2="7.65172" gradientUnits="userSpaceOnUse">
<stop stop-color="#FFE500"/>
<stop offset="0.5" stop-color="#FFE500"/>
<stop offset="1" stop-color="#DF5426"/>
</linearGradient>
<linearGradient id="paint6_linear_3422_24185" x1="5.47449" y1="18.2175" x2="8.63839" y2="21.8489" gradientUnits="userSpaceOnUse">
<stop stop-color="#731012"/>
<stop offset="1" stop-color="#D91F26" stop-opacity="0"/>
</linearGradient>
<linearGradient id="paint7_linear_3422_24185" x1="25.4218" y1="18.2175" x2="22.258" y2="21.8488" gradientUnits="userSpaceOnUse">
<stop stop-color="#731012"/>
<stop offset="1" stop-color="#D91F26" stop-opacity="0"/>
</linearGradient>
<linearGradient id="paint8_linear_3422_24185" x1="27.963" y1="12.3349" x2="26.2507" y2="10.7238" gradientUnits="userSpaceOnUse">
<stop stop-color="#731012"/>
<stop offset="1" stop-color="#D91F26" stop-opacity="0"/>
</linearGradient>
<linearGradient id="paint9_linear_3422_24185" x1="3.14411" y1="12.5068" x2="4.95708" y2="10.5936" gradientUnits="userSpaceOnUse">
<stop stop-color="#731012"/>
<stop offset="1" stop-color="#D91F26" stop-opacity="0"/>
</linearGradient>
<radialGradient id="paint10_radial_3422_24185" cx="0" cy="0" r="1" gradientUnits="userSpaceOnUse" gradientTransform="translate(18.6499 1.35493) rotate(180) scale(1.20757 1.14975)">
<stop stop-color="#FFE500"/>
<stop offset="0.5" stop-color="#FFE500"/>
<stop offset="1" stop-color="#DF5426"/>
</radialGradient>
<radialGradient id="paint11_radial_3422_24185" cx="0" cy="0" r="1" gradientUnits="userSpaceOnUse" gradientTransform="translate(15.475 0.795876) scale(0.912382 0.872092)">
<stop stop-color="#FFE500"/>
<stop offset="0.5" stop-color="#FFE500"/>
<stop offset="1" stop-color="#DF5426"/>
</radialGradient>
<radialGradient id="paint12_radial_3422_24185" cx="0" cy="0" r="1" gradientUnits="userSpaceOnUse" gradientTransform="translate(27.4278 7.48468) rotate(-119.726) scale(1.88429 1.65753)">
<stop stop-color="#FFE500"/>
<stop offset="0.5" stop-color="#FFE500"/>
<stop offset="1" stop-color="#DF5426"/>
</radialGradient>
<linearGradient id="paint13_linear_3422_24185" x1="28.135" y1="7.14823" x2="27.6769" y2="7.65174" gradientUnits="userSpaceOnUse">
<stop stop-color="#FFE500"/>
<stop offset="0.5" stop-color="#FFE500"/>
<stop offset="1" stop-color="#DF5426"/>
</linearGradient>
<radialGradient id="paint14_radial_3422_24185" cx="0" cy="0" r="1" gradientUnits="userSpaceOnUse" gradientTransform="translate(18.3268 28.5391) rotate(180) scale(1.0562 0.94969)">
<stop stop-color="#FFE500"/>
<stop offset="0.5" stop-color="#FFE500"/>
<stop offset="1" stop-color="#DF5426"/>
</radialGradient>
<radialGradient id="paint15_radial_3422_24185" cx="0" cy="0" r="1" gradientUnits="userSpaceOnUse" gradientTransform="translate(3.54891 15.9754) scale(1.96542 1.93331)">
<stop stop-color="#D91F26" stop-opacity="0"/>
<stop offset="0.875" stop-color="#D91F26" stop-opacity="0"/>
<stop offset="1" stop-color="#D91F26"/>
</radialGradient>
<radialGradient id="paint16_radial_3422_24185" cx="0" cy="0" r="1" gradientUnits="userSpaceOnUse" gradientTransform="translate(27.4798 15.9661) scale(1.96543 1.93333)">
<stop stop-color="#D91F26" stop-opacity="0"/>
<stop offset="0.875" stop-color="#D91F26" stop-opacity="0"/>
<stop offset="1" stop-color="#D91F26"/>
</radialGradient>
</defs>
</svg>
